<?xml version="1.0" encoding="UTF-8"?>
<svg id="Layer_1" data-name="Layer 1" xmlns="http://www.w3.org/2000/svg" xmlns:xlink="http://www.w3.org/1999/xlink" viewBox="0 0 299.2 91">
  <defs>
    <style>
      .cls-1 {
        fill: #010101;
      }

      .cls-2 {
        fill: url(#linear-gradient);
      }

      .cls-3 {
        fill: #fff;
      }
    </style>
    <linearGradient id="linear-gradient" x1="272.1" y1="22" x2="225.1" y2="69" gradientUnits="userSpaceOnUse">
      <stop offset="0" stop-color="#5fbb46"/>
      <stop offset="1" stop-color="#059fab"/>
    </linearGradient>
  </defs>
  <path class="cls-1" d="M216.1,11h11v9h11v9h-11c.1,3.8.3,7.6.4,11.4,0,1.1.1,2.2.1,3.3,0,1,.1,2.1.1,3.1q.1,1.4.1,2.9,0,2.2,1.2,3.2c1.5.1,3,.1,4.6.1h4.4c1,2.3,2,4.6,3,7-5.1,3.1-9.2,3.8-15,3-4.2-1.6-6.7-3.1-9-7-1-3.1-1.1-5.3-1.1-8.5v-18.5q-3.4-.2-7,1c-2,2.5-3,5.4-4.2,8.4-.4.8-.7,1.7-1.1,2.6-1.1,2.7-2.2,5.4-3.3,8.2-1.1,2.7-2.2,5.4-3.3,8.1-.7,1.7-1.4,3.4-2,5.1-2.5,6.1-5.7,11.6-11.4,15.2-6.5,1.4-11.9,1.3-17.7-2.4-.3-.7-.7-1.3-1-2q.8-1.7,1.9-3.6c.7-1.1,1.4-2.2,2.1-3.4q1,.5,2.1,1.1c3.6,1.2,6.2.7,9.9-.1,1.3-2.7,2.2-4.9,1.6-7.9-.9-2.2-1.8-4.4-2.8-6.6-.4-.8-.7-1.6-1.1-2.4-1.1-2.6-2.3-5.1-3.5-7.7-1.1-2.6-2.3-5.1-3.4-7.7-.7-1.6-1.4-3.2-2.2-4.8-.3-.7-.7-1.4-1-2.2-.3-.6-.6-1.3-.9-1.9q-.5-2-1.5-6h11c.4.8.7,1.6,1.1,2.5,1.3,3,2.7,6,4,9,.6,1.3,1.2,2.6,1.7,3.9.8,1.9,1.7,3.7,2.5,5.6.5,1.1,1,2.3,1.5,3.4q1,2.5,2.2,3.6c4-9.2,7.9-18.5,12-28h14v-9Z"/>
  <path class="cls-1" d="M256.1,60c4.1-5.5,9.7-13.3,14.5-19.4-3.2-4.1-3.8-5.5-6.9-9.2q-7.6-9-7.6-11.4c4.2-.8,7.8-1,12,0,3.8,3.6,6.4,7.5,9,12,2.7-2.6,4.7-5,6.6-8.2,2-2.8,2.8-3.6,6.3-4.3,2.8,0,5.4.2,8.2.5-1.4,2.9-2.9,5.4-4.8,7.9-.5.7-1.1,1.4-1.6,2.1q-.8,1.1-1.7,2.2c-.6.7-1.1,1.5-1.7,2.3-1.4,1.8-2.8,3.7-4.2,5.5,2.8,5.2,6,9.8,9.8,14.4.5.6,1,1.3,1.5,1.9,1.2,1.5,2.5,3.1,3.7,4.6l-1,2c-3.5.5-6.6.7-10,0-2.9-2.3-4.9-5-7-8-.6-.7-.8-1.5-1.4-2.2-1-2.2-1-1.7-1.6-3.8h-2c-.3.6-.5,1.1-.8,1.7-1.4,2.6-3,4.7-4.8,7-.6.8-1.2,1.6-1.9,2.4q-1.6,2-2.6,3c-1.7.1-3.4.1-5.1.1h-4.9c-.6,0,.2-2.5,0-3.1"/>
  <path class="cls-3" d="M250.1,65v26h-3v-26h-4V12h4V0h3v12"/>
  <path class="cls-1" d="M.1,7h40v10H11.1v13h26v9H11.1v14h30v9c-1.9,1.9-4.5,1.1-7,1.1H7.1q-5.9,0-7-1.1c-.1-1.7-.1-3.4-.1-5.2v-30.2c.1-6.6.1-13.1.1-19.6Z"/>
  <path class="cls-1" d="M120.4,25.2c4.4,4.7,6.4,10.3,6.7,16.8-.5,7.5-3.6,12-9,17-6.1,4.4-12.7,4.8-20,4-6-1.9-10.8-4.7-14.1-10.2-3.1-6.3-3.5-12-1.9-18.8,2.5-5.9,6.3-10.1,12-13,9.1-3.6,18.9-2.1,26.3,4.2ZM95.1,32c-3.1,4.3-3.4,7.7-2.6,12.8,1.1,3.9,2.4,5.5,5.6,8.2,4.3,1.4,7.7,1.5,11.9-.2,3.4-2.9,4.9-4.7,5.9-9.2.3-5-.5-8.1-3.8-11.9-3.3-2.8-5.7-3-10-2.9-3,.3-4.7,1.2-7,3.2Z"/>
  <path class="cls-1" d="M132.1,7h11v46h28v9c-1.8,1.8-4.3,1.1-6.7,1.1h-25.5q-5.6,0-6.7-1.1c-.1-1.7-.1-3.4-.1-5.2v-30.2c0-6.6,0-13.1,0-19.6Z"/>
  <path class="cls-1" d="M39.1,20h11c.3.7.6,1.5,1,2.2,1.5,3.4,2.9,6.7,4.4,10.1.5,1.2,1,2.3,1.5,3.5.5,1.1,1,2.2,1.5,3.4.5,1,.9,2.1,1.4,3.1q1.2,2.8,3.2,5.7c4-9.2,7.9-18.5,12-28h10c-.7,4.7-2.4,8.7-4.3,13-.3.8-.7,1.5-1,2.3-.7,1.6-1.4,3.2-2.1,4.8-1.1,2.5-2.1,4.9-3.2,7.4-.7,1.6-1.3,3.1-2,4.7-.3.7-.6,1.5-1,2.2-1.3,3-2.6,5.8-4.5,8.5q-2,.5-4.4.6c-.8,0-1.5.1-2.3.1-3.4-1-4.6-3.7-6.3-6.7-1.3-2.7-2.5-5.4-3.7-8.2-.3-.8-.7-1.5-1-2.3-.7-1.6-1.4-3.2-2-4.8-1-2.5-2.1-4.9-3.2-7.4-.7-1.6-1.3-3.1-2-4.7-.3-.7-.6-1.5-1-2.2q-2-5.1-2-7.3Z"/>
  <path class="cls-2" d="M247.1,0h3v12h5v53h-5v26h-3v-26h-4V12h4V0Z"/>
</svg>